<?xml version="1.0" encoding="UTF-8" standalone="no"?>
<svg
   xmlns:dc="http://purl.org/dc/elements/1.1/"
   xmlns:cc="http://creativecommons.org/ns#"
   xmlns:rdf="http://www.w3.org/1999/02/22-rdf-syntax-ns#"
   xmlns:svg="http://www.w3.org/2000/svg"
   xmlns="http://www.w3.org/2000/svg"
   viewBox="0 0 793.70667 1122.52"
   height="1122.52"
   width="793.70667"
   xml:space="preserve"
   id="svg2"
   version="1.1"><metadata
     id="metadata8"><rdf:RDF><cc:Work
         rdf:about=""><dc:format>image/svg+xml</dc:format><dc:type
           rdf:resource="http://purl.org/dc/dcmitype/StillImage" /></cc:Work></rdf:RDF></metadata><defs
     id="defs6"><clipPath
       id="clipPath26"
       clipPathUnits="userSpaceOnUse"><path
         id="path24"
         d="M 0,841.89 H 595.28 V 0 H 0 Z" /></clipPath></defs><g
     transform="matrix(1.3333333,0,0,-1.3333333,0,1122.52)"
     id="g10"><g
       transform="translate(553.7133,425.4021)"
       id="g12"><path
         id="path14"
         style="fill:#ffed00;fill-opacity:1;fill-rule:nonzero;stroke:none"
         d="M 0,0 -256.782,-256.782 -512.146,-1.418 -255.364,255.364 Z" /></g><g
       transform="translate(41.9314,423.9846)"
       id="g16"><path
         id="path18"
         style="fill:#1d1d1b;fill-opacity:1;fill-rule:nonzero;stroke:none"
         d="m 0,0 255,-255 256.417,256.417 -255,255 z M 255,-255.729 -0.729,0 256.417,257.146 512.146,1.417 Z" /></g><g
       id="g20"><g
         clip-path="url(#clipPath26)"
         id="g22"><g
           transform="translate(297.7155,659.8183)"
           id="g28"><path
             id="path30"
             style="fill:#1d1d1b;fill-opacity:1;fill-rule:nonzero;stroke:none"
             d="M 0,0 C -0.981,-0.874 -1.894,-1.61 -2.718,-2.434 -79.383,-79.09 -156.041,-155.753 -232.7,-232.415 c -2.695,-2.695 -2.695,-2.687 -0.042,-5.339 34.807,-34.807 69.613,-69.615 104.418,-104.424 42.035,-42.038 84.076,-84.07 126.076,-126.143 1.605,-1.608 2.59,-1.877 4.334,-0.081 7.002,7.209 14.171,14.258 21.278,21.365 69.861,69.86 139.716,139.727 209.618,209.546 1.817,1.815 1.917,2.863 0.042,4.733 -37.652,37.554 -75.237,75.175 -112.84,112.779 C 80.759,-80.553 41.332,-41.129 1.901,-1.709 1.369,-1.177 0.782,-0.7 0,0 m 241.467,-235.016 c 0.052,-2.818 -1.35,-4.777 -3.176,-6.6 -20.55,-20.514 -41.079,-41.049 -61.611,-61.581 C 120.064,-359.81 63.449,-416.425 6.833,-473.038 c -4.95,-4.95 -8.741,-4.962 -13.67,-0.034 -77.208,77.195 -154.414,154.392 -231.62,231.589 -4.229,4.228 -4.219,8.536 0.027,12.781 68.944,68.936 137.889,137.873 206.834,206.809 8.382,8.382 16.769,16.759 25.147,25.146 4.293,4.297 8.504,4.354 12.763,0.096 38.03,-38.023 76.052,-76.055 114.079,-114.081 39.181,-39.181 78.361,-78.362 117.559,-117.526 1.937,-1.936 3.604,-3.93 3.515,-6.758" /></g><g
           transform="translate(298.5347,468.0398)"
           id="g32"><path
             id="path34"
             style="fill:#1d1d1b;fill-opacity:1;fill-rule:nonzero;stroke:none"
             d="m 0,0 c 12.039,12.783 26.877,20.717 43.391,25.777 1.497,0.459 1.803,1.183 1.726,2.571 -0.405,7.289 -0.748,14.582 -1.098,21.874 -0.044,0.902 -0.006,1.808 -0.006,3.227 28.415,-14.513 56.386,-28.8 84.869,-43.348 -26.852,-17.413 -53.178,-34.484 -80.051,-51.91 -0.466,8.455 -0.9,16.359 -1.358,24.668 -0.94,-0.384 -1.765,-0.684 -2.559,-1.05 -16.745,-7.725 -24.342,-21.065 -24.325,-39.241 0.05,-51.468 0.018,-102.936 0.019,-154.404 0,-1.179 0,-2.358 0,-3.701 h -41.643 c 0,1.165 0,2.323 0,3.481 -0.001,51.64 0.02,103.279 -0.023,154.919 -0.009,10.96 -2.5,21.126 -10.4,29.32 -4.586,4.756 -10.083,8.121 -16.444,10.808 -0.45,-8.245 -0.881,-16.162 -1.349,-24.735 -26.797,17.373 -53.167,34.47 -80.066,51.909 28.439,14.525 56.4,28.806 84.848,43.336 0,-1.403 0.037,-2.298 -0.006,-3.189 -0.348,-7.292 -0.686,-14.584 -1.092,-21.872 -0.077,-1.381 0.2,-2.14 1.69,-2.592 C -27.424,20.859 -12.693,12.921 -0.691,0.371 -0.581,0.257 -0.4,0.211 0,0" /></g></g></g></g></svg>